<mxfile host="app.diagrams.net" modified="2024-02-07T18:29:26.691Z" agent="Mozilla/5.0 (Windows NT 10.0; Win64; x64) AppleWebKit/537.36 (KHTML, like Gecko) Chrome/121.0.0.0 Safari/537.36" etag="4jPgHxR2rv4oiOIad0Km" version="23.1.1" type="google">
  <diagram name="Page-1" id="58cdce13-f638-feb5-8d6f-7d28b1aa9fa0">
    <mxGraphModel grid="1" page="1" gridSize="10" guides="1" tooltips="1" connect="1" arrows="1" fold="1" pageScale="1" pageWidth="1654" pageHeight="1169" background="#D9F3F8" math="0" shadow="0">
      <root>
        <mxCell id="0" />
        <mxCell id="1" parent="0" />
        <mxCell id="QsK15BSNZArLvk_TxogM-2" value="" style="ellipse;html=1;shape=startState;fillColor=#000000;strokeColor=#ff0000;fontFamily=Poppins;fontSource=https%3A%2F%2Ffonts.googleapis.com%2Fcss%3Ffamily%3DPoppins;" vertex="1" parent="1">
          <mxGeometry x="1181" y="30" width="30" height="30" as="geometry" />
        </mxCell>
        <mxCell id="QsK15BSNZArLvk_TxogM-3" value="" style="edgeStyle=orthogonalEdgeStyle;html=1;verticalAlign=bottom;endArrow=open;endSize=8;strokeColor=#ff0000;rounded=0;fontFamily=Poppins;fontSource=https%3A%2F%2Ffonts.googleapis.com%2Fcss%3Ffamily%3DPoppins;exitX=0.5;exitY=1;exitDx=0;exitDy=0;entryX=0.5;entryY=0;entryDx=0;entryDy=0;" edge="1" parent="1" source="QsK15BSNZArLvk_TxogM-2" target="QsK15BSNZArLvk_TxogM-4">
          <mxGeometry relative="1" as="geometry">
            <mxPoint x="1197" y="120" as="targetPoint" />
          </mxGeometry>
        </mxCell>
        <mxCell id="QsK15BSNZArLvk_TxogM-4" value="Waiting" style="swimlane;fontStyle=1;align=center;verticalAlign=middle;childLayout=stackLayout;horizontal=1;startSize=30;horizontalStack=0;resizeParent=0;resizeLast=1;container=0;fontColor=#000000;collapsible=0;rounded=1;arcSize=30;strokeColor=#ff0000;fillColor=#ffffc0;swimlaneFillColor=#ffffc0;dropTarget=0;fontFamily=Poppins;fontSource=https%3A%2F%2Ffonts.googleapis.com%2Fcss%3Ffamily%3DPoppins;" vertex="1" parent="1">
          <mxGeometry x="1142" y="120" width="108" height="70" as="geometry" />
        </mxCell>
        <mxCell id="QsK15BSNZArLvk_TxogM-5" value="Do: Display Login Page" style="text;html=1;strokeColor=none;fillColor=none;align=center;verticalAlign=middle;spacingLeft=4;spacingRight=4;whiteSpace=wrap;overflow=hidden;rotatable=0;fontColor=#000000;fontFamily=Poppins;fontSource=https%3A%2F%2Ffonts.googleapis.com%2Fcss%3Ffamily%3DPoppins;" vertex="1" parent="QsK15BSNZArLvk_TxogM-4">
          <mxGeometry y="30" width="108" height="40" as="geometry" />
        </mxCell>
        <mxCell id="QsK15BSNZArLvk_TxogM-9" value="Registration" style="swimlane;fontStyle=1;align=center;verticalAlign=middle;childLayout=stackLayout;horizontal=1;startSize=30;horizontalStack=0;resizeParent=0;resizeLast=1;container=0;fontColor=#000000;collapsible=0;rounded=1;arcSize=30;strokeColor=#ff0000;fillColor=#ffffc0;swimlaneFillColor=#ffffc0;dropTarget=0;fontFamily=Poppins;fontSource=https%3A%2F%2Ffonts.googleapis.com%2Fcss%3Ffamily%3DPoppins;" vertex="1" parent="1">
          <mxGeometry x="820" y="230" width="130" height="70" as="geometry" />
        </mxCell>
        <mxCell id="QsK15BSNZArLvk_TxogM-10" value="Do: Display Sign-Up Page" style="text;html=1;strokeColor=none;fillColor=none;align=center;verticalAlign=middle;spacingLeft=4;spacingRight=4;whiteSpace=wrap;overflow=hidden;rotatable=0;fontColor=#000000;fontFamily=Poppins;fontSource=https%3A%2F%2Ffonts.googleapis.com%2Fcss%3Ffamily%3DPoppins;" vertex="1" parent="QsK15BSNZArLvk_TxogM-9">
          <mxGeometry y="30" width="130" height="40" as="geometry" />
        </mxCell>
        <mxCell id="QsK15BSNZArLvk_TxogM-36" style="edgeStyle=orthogonalEdgeStyle;rounded=0;orthogonalLoop=1;jettySize=auto;html=1;exitX=0.5;exitY=1;exitDx=0;exitDy=0;fontFamily=Poppins;fontSource=https%3A%2F%2Ffonts.googleapis.com%2Fcss%3Ffamily%3DPoppins;" edge="1" parent="QsK15BSNZArLvk_TxogM-9" source="QsK15BSNZArLvk_TxogM-10" target="QsK15BSNZArLvk_TxogM-10">
          <mxGeometry relative="1" as="geometry" />
        </mxCell>
        <mxCell id="QsK15BSNZArLvk_TxogM-37" style="edgeStyle=orthogonalEdgeStyle;rounded=0;orthogonalLoop=1;jettySize=auto;html=1;exitX=0.5;exitY=1;exitDx=0;exitDy=0;fontFamily=Poppins;fontSource=https%3A%2F%2Ffonts.googleapis.com%2Fcss%3Ffamily%3DPoppins;" edge="1" parent="QsK15BSNZArLvk_TxogM-9" source="QsK15BSNZArLvk_TxogM-10" target="QsK15BSNZArLvk_TxogM-10">
          <mxGeometry relative="1" as="geometry" />
        </mxCell>
        <mxCell id="QsK15BSNZArLvk_TxogM-20" value="Sign Up" style="text;html=1;strokeColor=none;fillColor=none;align=center;verticalAlign=middle;whiteSpace=wrap;rounded=0;fontFamily=Poppins;fontSource=https%3A%2F%2Ffonts.googleapis.com%2Fcss%3Ffamily%3DPoppins;" vertex="1" parent="1">
          <mxGeometry x="1050" y="230" width="60" height="30" as="geometry" />
        </mxCell>
        <mxCell id="QsK15BSNZArLvk_TxogM-50" style="edgeStyle=orthogonalEdgeStyle;rounded=0;orthogonalLoop=1;jettySize=auto;html=1;exitX=0.5;exitY=0;exitDx=0;exitDy=0;entryX=0.5;entryY=1;entryDx=0;entryDy=0;fontFamily=Poppins;fontSource=https%3A%2F%2Ffonts.googleapis.com%2Fcss%3Ffamily%3DPoppins;" edge="1" parent="1" source="QsK15BSNZArLvk_TxogM-24" target="QsK15BSNZArLvk_TxogM-47">
          <mxGeometry relative="1" as="geometry" />
        </mxCell>
        <mxCell id="QsK15BSNZArLvk_TxogM-24" value="Email Generation" style="swimlane;fontStyle=1;align=center;verticalAlign=middle;childLayout=stackLayout;horizontal=1;startSize=30;horizontalStack=0;resizeParent=0;resizeLast=1;container=0;fontColor=#000000;collapsible=0;rounded=1;arcSize=30;strokeColor=#ff0000;fillColor=#ffffc0;swimlaneFillColor=#ffffc0;dropTarget=0;fontFamily=Poppins;fontSource=https%3A%2F%2Ffonts.googleapis.com%2Fcss%3Ffamily%3DPoppins;" vertex="1" parent="1">
          <mxGeometry x="380" y="230" width="190" height="60" as="geometry" />
        </mxCell>
        <mxCell id="QsK15BSNZArLvk_TxogM-25" value="Do: Send Verification email" style="text;html=1;strokeColor=none;fillColor=none;align=center;verticalAlign=middle;spacingLeft=4;spacingRight=4;whiteSpace=wrap;overflow=hidden;rotatable=0;fontColor=#000000;fontFamily=Poppins;fontSource=https%3A%2F%2Ffonts.googleapis.com%2Fcss%3Ffamily%3DPoppins;" vertex="1" parent="QsK15BSNZArLvk_TxogM-24">
          <mxGeometry y="30" width="190" height="30" as="geometry" />
        </mxCell>
        <mxCell id="QsK15BSNZArLvk_TxogM-28" value="Set Credentials" style="swimlane;fontStyle=1;align=center;verticalAlign=middle;childLayout=stackLayout;horizontal=1;startSize=30;horizontalStack=0;resizeParent=0;resizeLast=1;container=0;fontColor=#000000;collapsible=0;rounded=1;arcSize=30;strokeColor=#ff0000;fillColor=#ffffc0;swimlaneFillColor=#ffffc0;dropTarget=0;fontFamily=Poppins;fontSource=https%3A%2F%2Ffonts.googleapis.com%2Fcss%3Ffamily%3DPoppins;" vertex="1" parent="1">
          <mxGeometry x="730" y="120" width="160" height="70" as="geometry" />
        </mxCell>
        <mxCell id="QsK15BSNZArLvk_TxogM-29" value="Do: Ask for details of the user and password" style="text;html=1;strokeColor=none;fillColor=none;align=center;verticalAlign=middle;spacingLeft=4;spacingRight=4;whiteSpace=wrap;overflow=hidden;rotatable=0;fontColor=#000000;fontFamily=Poppins;fontSource=https%3A%2F%2Ffonts.googleapis.com%2Fcss%3Ffamily%3DPoppins;" vertex="1" parent="QsK15BSNZArLvk_TxogM-28">
          <mxGeometry y="30" width="160" height="40" as="geometry" />
        </mxCell>
        <mxCell id="QsK15BSNZArLvk_TxogM-33" style="edgeStyle=orthogonalEdgeStyle;rounded=0;orthogonalLoop=1;jettySize=auto;html=1;exitX=1;exitY=0;exitDx=0;exitDy=0;entryX=0;entryY=0;entryDx=0;entryDy=0;fontFamily=Poppins;fontSource=https%3A%2F%2Ffonts.googleapis.com%2Fcss%3Ffamily%3DPoppins;" edge="1" parent="1" source="QsK15BSNZArLvk_TxogM-29" target="QsK15BSNZArLvk_TxogM-5">
          <mxGeometry relative="1" as="geometry">
            <Array as="points">
              <mxPoint x="910" y="150" />
              <mxPoint x="910" y="150" />
            </Array>
          </mxGeometry>
        </mxCell>
        <mxCell id="QsK15BSNZArLvk_TxogM-34" style="edgeStyle=orthogonalEdgeStyle;rounded=0;orthogonalLoop=1;jettySize=auto;html=1;exitX=0;exitY=0;exitDx=0;exitDy=0;entryX=1;entryY=0.5;entryDx=0;entryDy=0;fontFamily=Poppins;fontSource=https%3A%2F%2Ffonts.googleapis.com%2Fcss%3Ffamily%3DPoppins;" edge="1" parent="1" source="QsK15BSNZArLvk_TxogM-10" target="QsK15BSNZArLvk_TxogM-24">
          <mxGeometry relative="1" as="geometry">
            <Array as="points">
              <mxPoint x="780" y="260" />
              <mxPoint x="780" y="260" />
            </Array>
          </mxGeometry>
        </mxCell>
        <mxCell id="QsK15BSNZArLvk_TxogM-40" value="Enter iitk email id and click &quot;send link&quot;" style="text;html=1;strokeColor=none;fillColor=none;align=center;verticalAlign=middle;whiteSpace=wrap;rounded=0;fontFamily=Poppins;fontSource=https%3A%2F%2Ffonts.googleapis.com%2Fcss%3Ffamily%3DPoppins;" vertex="1" parent="1">
          <mxGeometry x="630" y="230" width="140" height="30" as="geometry" />
        </mxCell>
        <mxCell id="QsK15BSNZArLvk_TxogM-47" value="Verification" style="swimlane;fontStyle=1;align=center;verticalAlign=middle;childLayout=stackLayout;horizontal=1;startSize=30;horizontalStack=0;resizeParent=0;resizeLast=1;container=0;fontColor=#000000;collapsible=0;rounded=1;arcSize=30;strokeColor=#ff0000;fillColor=#ffffc0;swimlaneFillColor=#ffffc0;dropTarget=0;fontFamily=Poppins;fontSource=https%3A%2F%2Ffonts.googleapis.com%2Fcss%3Ffamily%3DPoppins;" vertex="1" parent="1">
          <mxGeometry x="395" y="120" width="160" height="60" as="geometry" />
        </mxCell>
        <mxCell id="QsK15BSNZArLvk_TxogM-48" value="Do: Verify User" style="text;html=1;strokeColor=none;fillColor=none;align=center;verticalAlign=middle;spacingLeft=4;spacingRight=4;whiteSpace=wrap;overflow=hidden;rotatable=0;fontColor=#000000;fontFamily=Poppins;fontSource=https%3A%2F%2Ffonts.googleapis.com%2Fcss%3Ffamily%3DPoppins;" vertex="1" parent="QsK15BSNZArLvk_TxogM-47">
          <mxGeometry y="30" width="160" height="30" as="geometry" />
        </mxCell>
        <mxCell id="QsK15BSNZArLvk_TxogM-51" style="edgeStyle=orthogonalEdgeStyle;rounded=0;orthogonalLoop=1;jettySize=auto;html=1;exitX=1;exitY=0;exitDx=0;exitDy=0;entryX=0;entryY=0;entryDx=0;entryDy=0;fontFamily=Poppins;fontSource=https%3A%2F%2Ffonts.googleapis.com%2Fcss%3Ffamily%3DPoppins;" edge="1" parent="1" source="QsK15BSNZArLvk_TxogM-48" target="QsK15BSNZArLvk_TxogM-29">
          <mxGeometry relative="1" as="geometry">
            <Array as="points">
              <mxPoint x="640" y="150" />
              <mxPoint x="640" y="150" />
            </Array>
          </mxGeometry>
        </mxCell>
        <mxCell id="QsK15BSNZArLvk_TxogM-52" value="Click on link in email" style="text;html=1;strokeColor=none;fillColor=none;align=center;verticalAlign=middle;whiteSpace=wrap;rounded=0;fontFamily=Poppins;fontSource=https%3A%2F%2Ffonts.googleapis.com%2Fcss%3Ffamily%3DPoppins;" vertex="1" parent="1">
          <mxGeometry x="460" y="190" width="200" height="30" as="geometry" />
        </mxCell>
        <mxCell id="QsK15BSNZArLvk_TxogM-55" value="Enter credentials and click &quot;Sign-Up&quot;" style="text;html=1;strokeColor=none;fillColor=none;align=center;verticalAlign=middle;whiteSpace=wrap;rounded=0;fontFamily=Poppins;fontSource=https%3A%2F%2Ffonts.googleapis.com%2Fcss%3Ffamily%3DPoppins;" vertex="1" parent="1">
          <mxGeometry x="950" y="120" width="130" height="30" as="geometry" />
        </mxCell>
        <mxCell id="QsK15BSNZArLvk_TxogM-58" value="Verified Successfully" style="text;html=1;strokeColor=none;fillColor=none;align=center;verticalAlign=middle;whiteSpace=wrap;rounded=0;fontFamily=Poppins;fontSource=https%3A%2F%2Ffonts.googleapis.com%2Fcss%3Ffamily%3DPoppins;" vertex="1" parent="1">
          <mxGeometry x="600" y="120" width="60" height="30" as="geometry" />
        </mxCell>
        <mxCell id="QsK15BSNZArLvk_TxogM-60" style="edgeStyle=orthogonalEdgeStyle;rounded=0;orthogonalLoop=1;jettySize=auto;html=1;exitX=0;exitY=0;exitDx=0;exitDy=0;entryX=0;entryY=0;entryDx=0;entryDy=0;fontFamily=Poppins;fontSource=https%3A%2F%2Ffonts.googleapis.com%2Fcss%3Ffamily%3DPoppins;" edge="1" parent="1" source="QsK15BSNZArLvk_TxogM-48" target="QsK15BSNZArLvk_TxogM-25">
          <mxGeometry relative="1" as="geometry">
            <Array as="points">
              <mxPoint x="320" y="150" />
              <mxPoint x="320" y="260" />
            </Array>
          </mxGeometry>
        </mxCell>
        <mxCell id="QsK15BSNZArLvk_TxogM-61" value="Verification&lt;br&gt;Failed" style="text;html=1;strokeColor=none;fillColor=none;align=center;verticalAlign=middle;whiteSpace=wrap;rounded=0;fontFamily=Poppins;fontSource=https%3A%2F%2Ffonts.googleapis.com%2Fcss%3Ffamily%3DPoppins;" vertex="1" parent="1">
          <mxGeometry x="250" y="190" width="60" height="30" as="geometry" />
        </mxCell>
        <mxCell id="QsK15BSNZArLvk_TxogM-63" style="edgeStyle=orthogonalEdgeStyle;rounded=0;orthogonalLoop=1;jettySize=auto;html=1;exitX=0.5;exitY=1;exitDx=0;exitDy=0;entryX=1;entryY=0;entryDx=0;entryDy=0;fontFamily=Poppins;fontSource=https%3A%2F%2Ffonts.googleapis.com%2Fcss%3Ffamily%3DPoppins;" edge="1" parent="1" source="QsK15BSNZArLvk_TxogM-5" target="QsK15BSNZArLvk_TxogM-10">
          <mxGeometry relative="1" as="geometry">
            <Array as="points">
              <mxPoint x="1196" y="260" />
            </Array>
          </mxGeometry>
        </mxCell>
        <mxCell id="QsK15BSNZArLvk_TxogM-65" value="Enter Credentials and click &quot;log-in&quot;" style="text;html=1;strokeColor=none;fillColor=none;align=center;verticalAlign=middle;whiteSpace=wrap;rounded=0;fontFamily=Poppins;fontSource=https%3A%2F%2Ffonts.googleapis.com%2Fcss%3Ffamily%3DPoppins;" vertex="1" parent="1">
          <mxGeometry x="1290" y="110" width="150" height="30" as="geometry" />
        </mxCell>
        <mxCell id="QsK15BSNZArLvk_TxogM-68" value="Student Homepage" style="swimlane;fontStyle=1;align=center;verticalAlign=middle;childLayout=stackLayout;horizontal=1;startSize=30;horizontalStack=0;resizeParent=0;resizeLast=1;container=0;fontColor=#000000;collapsible=0;rounded=1;arcSize=30;strokeColor=#ff0000;fillColor=#ffffc0;swimlaneFillColor=#ffffc0;dropTarget=0;fontFamily=Poppins;fontSource=https%3A%2F%2Ffonts.googleapis.com%2Fcss%3Ffamily%3DPoppins;" vertex="1" parent="1">
          <mxGeometry x="320" y="590" width="160" height="70" as="geometry" />
        </mxCell>
        <mxCell id="QsK15BSNZArLvk_TxogM-69" value="Do: Display Landing Page" style="text;html=1;strokeColor=none;fillColor=none;align=center;verticalAlign=middle;spacingLeft=4;spacingRight=4;whiteSpace=wrap;overflow=hidden;rotatable=0;fontColor=#000000;fontFamily=Poppins;fontSource=https%3A%2F%2Ffonts.googleapis.com%2Fcss%3Ffamily%3DPoppins;" vertex="1" parent="QsK15BSNZArLvk_TxogM-68">
          <mxGeometry y="30" width="160" height="40" as="geometry" />
        </mxCell>
        <mxCell id="QsK15BSNZArLvk_TxogM-70" value="Counsellor Homepage" style="swimlane;fontStyle=1;align=center;verticalAlign=middle;childLayout=stackLayout;horizontal=1;startSize=30;horizontalStack=0;resizeParent=0;resizeLast=1;container=0;fontColor=#000000;collapsible=0;rounded=1;arcSize=30;strokeColor=#ff0000;fillColor=#ffffc0;swimlaneFillColor=#ffffc0;dropTarget=0;fontFamily=Poppins;fontSource=https%3A%2F%2Ffonts.googleapis.com%2Fcss%3Ffamily%3DPoppins;" vertex="1" parent="1">
          <mxGeometry x="560" y="590" width="160" height="70" as="geometry" />
        </mxCell>
        <mxCell id="QsK15BSNZArLvk_TxogM-71" value="Do: Display Counsellor Dashboard" style="text;html=1;strokeColor=none;fillColor=none;align=center;verticalAlign=middle;spacingLeft=4;spacingRight=4;whiteSpace=wrap;overflow=hidden;rotatable=0;fontColor=#000000;fontFamily=Poppins;fontSource=https%3A%2F%2Ffonts.googleapis.com%2Fcss%3Ffamily%3DPoppins;" vertex="1" parent="QsK15BSNZArLvk_TxogM-70">
          <mxGeometry y="30" width="160" height="40" as="geometry" />
        </mxCell>
        <mxCell id="QsK15BSNZArLvk_TxogM-74" value="Sports Coach&#39;s Homepage" style="swimlane;fontStyle=1;align=center;verticalAlign=middle;childLayout=stackLayout;horizontal=1;startSize=30;horizontalStack=0;resizeParent=0;resizeLast=1;container=0;fontColor=#000000;collapsible=0;rounded=1;arcSize=30;strokeColor=#ff0000;fillColor=#ffffc0;swimlaneFillColor=#ffffc0;dropTarget=0;fontFamily=Poppins;fontSource=https%3A%2F%2Ffonts.googleapis.com%2Fcss%3Ffamily%3DPoppins;" vertex="1" parent="1">
          <mxGeometry x="770" y="590" width="190" height="70" as="geometry" />
        </mxCell>
        <mxCell id="QsK15BSNZArLvk_TxogM-75" value="Do: Display Sports Coach&#39;s Dashboard" style="text;html=1;strokeColor=none;fillColor=none;align=center;verticalAlign=middle;spacingLeft=4;spacingRight=4;whiteSpace=wrap;overflow=hidden;rotatable=0;fontColor=#000000;fontFamily=Poppins;fontSource=https%3A%2F%2Ffonts.googleapis.com%2Fcss%3Ffamily%3DPoppins;" vertex="1" parent="QsK15BSNZArLvk_TxogM-74">
          <mxGeometry y="30" width="190" height="40" as="geometry" />
        </mxCell>
        <mxCell id="QsK15BSNZArLvk_TxogM-78" value="Yoga Instructor&#39;s Homepage" style="swimlane;fontStyle=1;align=center;verticalAlign=middle;childLayout=stackLayout;horizontal=1;startSize=30;horizontalStack=0;resizeParent=0;resizeLast=1;container=0;fontColor=#000000;collapsible=0;rounded=1;arcSize=30;strokeColor=#ff0000;fillColor=#ffffc0;swimlaneFillColor=#ffffc0;dropTarget=0;fontFamily=Poppins;fontSource=https%3A%2F%2Ffonts.googleapis.com%2Fcss%3Ffamily%3DPoppins;" vertex="1" parent="1">
          <mxGeometry x="1010" y="590" width="190" height="70" as="geometry" />
        </mxCell>
        <mxCell id="QsK15BSNZArLvk_TxogM-79" value="Do: Display Yoga Instructor&#39;s Dashboard" style="text;html=1;strokeColor=none;fillColor=none;align=center;verticalAlign=middle;spacingLeft=4;spacingRight=4;whiteSpace=wrap;overflow=hidden;rotatable=0;fontColor=#000000;fontFamily=Poppins;fontSource=https%3A%2F%2Ffonts.googleapis.com%2Fcss%3Ffamily%3DPoppins;" vertex="1" parent="QsK15BSNZArLvk_TxogM-78">
          <mxGeometry y="30" width="190" height="40" as="geometry" />
        </mxCell>
        <mxCell id="QsK15BSNZArLvk_TxogM-82" value="Gym/Swimming Pool Manager&#39;s Homepage" style="swimlane;fontStyle=1;align=center;verticalAlign=middle;childLayout=stackLayout;horizontal=1;startSize=30;horizontalStack=0;resizeParent=0;resizeLast=1;container=0;fontColor=#000000;collapsible=0;rounded=1;arcSize=30;strokeColor=#ff0000;fillColor=#ffffc0;swimlaneFillColor=#ffffc0;dropTarget=0;fontFamily=Poppins;fontSource=https%3A%2F%2Ffonts.googleapis.com%2Fcss%3Ffamily%3DPoppins;" vertex="1" parent="1">
          <mxGeometry x="1240" y="590" width="290" height="70" as="geometry" />
        </mxCell>
        <mxCell id="QsK15BSNZArLvk_TxogM-83" value="Do: Display Gym/Swimming Pool Manager&#39;s Dashboard" style="text;html=1;strokeColor=none;fillColor=none;align=center;verticalAlign=middle;spacingLeft=4;spacingRight=4;whiteSpace=wrap;overflow=hidden;rotatable=0;fontColor=#000000;fontFamily=Poppins;fontSource=https%3A%2F%2Ffonts.googleapis.com%2Fcss%3Ffamily%3DPoppins;" vertex="1" parent="QsK15BSNZArLvk_TxogM-82">
          <mxGeometry y="30" width="290" height="40" as="geometry" />
        </mxCell>
        <mxCell id="QsK15BSNZArLvk_TxogM-92" value="Highlights" style="swimlane;fontStyle=1;align=center;verticalAlign=middle;childLayout=stackLayout;horizontal=1;startSize=30;horizontalStack=0;resizeParent=0;resizeLast=1;container=0;fontColor=#000000;collapsible=0;rounded=1;arcSize=30;strokeColor=#ff0000;fillColor=#ffffc0;swimlaneFillColor=#ffffc0;dropTarget=0;fontFamily=Poppins;fontSource=https%3A%2F%2Ffonts.googleapis.com%2Fcss%3Ffamily%3DPoppins;" vertex="1" parent="1">
          <mxGeometry x="610" y="720" width="180" height="60" as="geometry" />
        </mxCell>
        <mxCell id="QsK15BSNZArLvk_TxogM-93" value="Do: Display article pop-up" style="text;html=1;strokeColor=none;fillColor=none;align=center;verticalAlign=middle;spacingLeft=4;spacingRight=4;whiteSpace=wrap;overflow=hidden;rotatable=0;fontColor=#000000;fontFamily=Poppins;fontSource=https%3A%2F%2Ffonts.googleapis.com%2Fcss%3Ffamily%3DPoppins;" vertex="1" parent="QsK15BSNZArLvk_TxogM-92">
          <mxGeometry y="30" width="180" height="30" as="geometry" />
        </mxCell>
        <mxCell id="QsK15BSNZArLvk_TxogM-96" value="Navigation" style="swimlane;fontStyle=1;align=center;verticalAlign=middle;childLayout=stackLayout;horizontal=1;startSize=30;horizontalStack=0;resizeParent=0;resizeLast=1;container=0;fontColor=#000000;collapsible=0;rounded=1;arcSize=30;strokeColor=#ff0000;fillColor=#ffffc0;swimlaneFillColor=#ffffc0;dropTarget=0;fontFamily=Poppins;fontSource=https%3A%2F%2Ffonts.googleapis.com%2Fcss%3Ffamily%3DPoppins;" vertex="1" parent="1">
          <mxGeometry x="610" y="820" width="160" height="80" as="geometry" />
        </mxCell>
        <mxCell id="QsK15BSNZArLvk_TxogM-97" value="Do: Display sidebar with list of sports and mental wellness options" style="text;html=1;strokeColor=none;fillColor=none;align=center;verticalAlign=middle;spacingLeft=4;spacingRight=4;whiteSpace=wrap;overflow=hidden;rotatable=0;fontColor=#000000;fontFamily=Poppins;fontSource=https%3A%2F%2Ffonts.googleapis.com%2Fcss%3Ffamily%3DPoppins;" vertex="1" parent="QsK15BSNZArLvk_TxogM-96">
          <mxGeometry y="30" width="160" height="50" as="geometry" />
        </mxCell>
        <mxCell id="QsK15BSNZArLvk_TxogM-98" value="Profile" style="swimlane;fontStyle=1;align=center;verticalAlign=middle;childLayout=stackLayout;horizontal=1;startSize=30;horizontalStack=0;resizeParent=0;resizeLast=1;container=0;fontColor=#000000;collapsible=0;rounded=1;arcSize=30;strokeColor=#ff0000;fillColor=#ffffc0;swimlaneFillColor=#ffffc0;dropTarget=0;fontFamily=Poppins;fontSource=https%3A%2F%2Ffonts.googleapis.com%2Fcss%3Ffamily%3DPoppins;" vertex="1" parent="1">
          <mxGeometry x="610" y="940" width="160" height="60" as="geometry" />
        </mxCell>
        <mxCell id="QsK15BSNZArLvk_TxogM-99" value="Do: Display user profile" style="text;html=1;strokeColor=none;fillColor=none;align=center;verticalAlign=middle;spacingLeft=4;spacingRight=4;whiteSpace=wrap;overflow=hidden;rotatable=0;fontColor=#000000;fontFamily=Poppins;fontSource=https%3A%2F%2Ffonts.googleapis.com%2Fcss%3Ffamily%3DPoppins;" vertex="1" parent="QsK15BSNZArLvk_TxogM-98">
          <mxGeometry y="30" width="160" height="30" as="geometry" />
        </mxCell>
        <mxCell id="QsK15BSNZArLvk_TxogM-100" style="edgeStyle=orthogonalEdgeStyle;rounded=0;orthogonalLoop=1;jettySize=auto;html=1;entryX=0;entryY=0;entryDx=0;entryDy=0;fontFamily=Poppins;fontSource=https%3A%2F%2Ffonts.googleapis.com%2Fcss%3Ffamily%3DPoppins;" edge="1" parent="1" target="QsK15BSNZArLvk_TxogM-99">
          <mxGeometry relative="1" as="geometry">
            <Array as="points">
              <mxPoint x="400" y="970" />
            </Array>
            <mxPoint x="400" y="660" as="sourcePoint" />
          </mxGeometry>
        </mxCell>
        <mxCell id="QsK15BSNZArLvk_TxogM-101" value="" style="html=1;verticalAlign=bottom;endArrow=block;curved=0;rounded=0;entryX=0;entryY=0;entryDx=0;entryDy=0;fontFamily=Poppins;fontSource=https%3A%2F%2Ffonts.googleapis.com%2Fcss%3Ffamily%3DPoppins;" edge="1" parent="1" target="QsK15BSNZArLvk_TxogM-93">
          <mxGeometry x="0.0025" width="80" relative="1" as="geometry">
            <mxPoint x="400" y="749.7" as="sourcePoint" />
            <mxPoint x="430" y="750" as="targetPoint" />
            <mxPoint as="offset" />
          </mxGeometry>
        </mxCell>
        <mxCell id="QsK15BSNZArLvk_TxogM-102" value="Sports Page" style="swimlane;fontStyle=1;align=center;verticalAlign=middle;childLayout=stackLayout;horizontal=1;startSize=30;horizontalStack=0;resizeParent=0;resizeLast=1;container=0;fontColor=#000000;collapsible=0;rounded=1;arcSize=30;strokeColor=#ff0000;fillColor=#ffffc0;swimlaneFillColor=#ffffc0;dropTarget=0;fontFamily=Poppins;fontSource=https%3A%2F%2Ffonts.googleapis.com%2Fcss%3Ffamily%3DPoppins;" vertex="1" parent="1">
          <mxGeometry x="950" y="790" width="190" height="70" as="geometry" />
        </mxCell>
        <mxCell id="QsK15BSNZArLvk_TxogM-103" value="Do: Display the corresponding sports page" style="text;html=1;strokeColor=none;fillColor=none;align=center;verticalAlign=middle;spacingLeft=4;spacingRight=4;whiteSpace=wrap;overflow=hidden;rotatable=0;fontColor=#000000;fontFamily=Poppins;fontSource=https%3A%2F%2Ffonts.googleapis.com%2Fcss%3Ffamily%3DPoppins;" vertex="1" parent="QsK15BSNZArLvk_TxogM-102">
          <mxGeometry y="30" width="190" height="40" as="geometry" />
        </mxCell>
        <mxCell id="QsK15BSNZArLvk_TxogM-104" style="edgeStyle=orthogonalEdgeStyle;rounded=0;orthogonalLoop=1;jettySize=auto;html=1;exitX=1;exitY=0.25;exitDx=0;exitDy=0;fontFamily=Poppins;fontSource=https%3A%2F%2Ffonts.googleapis.com%2Fcss%3Ffamily%3DPoppins;entryX=0;entryY=0;entryDx=0;entryDy=0;" edge="1" parent="1" source="QsK15BSNZArLvk_TxogM-97" target="QsK15BSNZArLvk_TxogM-103">
          <mxGeometry relative="1" as="geometry">
            <Array as="points">
              <mxPoint x="810" y="863" />
              <mxPoint x="810" y="820" />
            </Array>
            <mxPoint x="940" y="820" as="targetPoint" />
          </mxGeometry>
        </mxCell>
        <mxCell id="QsK15BSNZArLvk_TxogM-105" value="Wellness Page" style="swimlane;fontStyle=1;align=center;verticalAlign=middle;childLayout=stackLayout;horizontal=1;startSize=30;horizontalStack=0;resizeParent=0;resizeLast=1;container=0;fontColor=#000000;collapsible=0;rounded=1;arcSize=30;strokeColor=#ff0000;fillColor=#ffffc0;swimlaneFillColor=#ffffc0;dropTarget=0;fontFamily=Poppins;fontSource=https%3A%2F%2Ffonts.googleapis.com%2Fcss%3Ffamily%3DPoppins;" vertex="1" parent="1">
          <mxGeometry x="950" y="880" width="190" height="70" as="geometry" />
        </mxCell>
        <mxCell id="QsK15BSNZArLvk_TxogM-106" value="Do: Display the corresponding wellness page" style="text;html=1;strokeColor=none;fillColor=none;align=center;verticalAlign=middle;spacingLeft=4;spacingRight=4;whiteSpace=wrap;overflow=hidden;rotatable=0;fontColor=#000000;fontFamily=Poppins;fontSource=https%3A%2F%2Ffonts.googleapis.com%2Fcss%3Ffamily%3DPoppins;" vertex="1" parent="QsK15BSNZArLvk_TxogM-105">
          <mxGeometry y="30" width="190" height="40" as="geometry" />
        </mxCell>
        <mxCell id="QsK15BSNZArLvk_TxogM-107" style="edgeStyle=orthogonalEdgeStyle;rounded=0;orthogonalLoop=1;jettySize=auto;html=1;exitX=1;exitY=0.25;exitDx=0;exitDy=0;entryX=0;entryY=0;entryDx=0;entryDy=0;fontFamily=Poppins;fontSource=https%3A%2F%2Ffonts.googleapis.com%2Fcss%3Ffamily%3DPoppins;" edge="1" parent="1" source="QsK15BSNZArLvk_TxogM-97" target="QsK15BSNZArLvk_TxogM-106">
          <mxGeometry relative="1" as="geometry">
            <Array as="points">
              <mxPoint x="810" y="862" />
              <mxPoint x="810" y="910" />
            </Array>
          </mxGeometry>
        </mxCell>
        <mxCell id="QsK15BSNZArLvk_TxogM-108" value="" style="html=1;verticalAlign=bottom;endArrow=block;curved=0;rounded=0;entryX=0;entryY=0;entryDx=0;entryDy=0;fontFamily=Poppins;fontSource=https%3A%2F%2Ffonts.googleapis.com%2Fcss%3Ffamily%3DPoppins;" edge="1" parent="1" target="QsK15BSNZArLvk_TxogM-97">
          <mxGeometry width="80" relative="1" as="geometry">
            <mxPoint x="400" y="850" as="sourcePoint" />
            <mxPoint x="480" y="850" as="targetPoint" />
          </mxGeometry>
        </mxCell>
        <mxCell id="QsK15BSNZArLvk_TxogM-109" value="Click on Profile Picture" style="text;html=1;strokeColor=none;fillColor=none;align=center;verticalAlign=middle;whiteSpace=wrap;rounded=0;fontFamily=Poppins;fontSource=https%3A%2F%2Ffonts.googleapis.com%2Fcss%3Ffamily%3DPoppins;" vertex="1" parent="1">
          <mxGeometry x="470" y="930" width="80" height="30" as="geometry" />
        </mxCell>
        <mxCell id="QsK15BSNZArLvk_TxogM-110" value="Choose a sport" style="text;html=1;strokeColor=none;fillColor=none;align=center;verticalAlign=middle;whiteSpace=wrap;rounded=0;fontFamily=Poppins;fontSource=https%3A%2F%2Ffonts.googleapis.com%2Fcss%3Ffamily%3DPoppins;" vertex="1" parent="1">
          <mxGeometry x="840" y="790" width="60" height="30" as="geometry" />
        </mxCell>
        <mxCell id="QsK15BSNZArLvk_TxogM-111" value="Choose a mental wellness option" style="text;html=1;strokeColor=none;fillColor=none;align=center;verticalAlign=middle;whiteSpace=wrap;rounded=0;fontFamily=Poppins;fontSource=https%3A%2F%2Ffonts.googleapis.com%2Fcss%3Ffamily%3DPoppins;" vertex="1" parent="1">
          <mxGeometry x="820" y="880" width="110" height="30" as="geometry" />
        </mxCell>
        <mxCell id="QsK15BSNZArLvk_TxogM-113" value="" style="html=1;verticalAlign=bottom;endArrow=block;curved=0;rounded=0;entryX=0.5;entryY=0;entryDx=0;entryDy=0;fontFamily=Poppins;fontSource=https%3A%2F%2Ffonts.googleapis.com%2Fcss%3Ffamily%3DPoppins;" edge="1" parent="1" target="QsK15BSNZArLvk_TxogM-68">
          <mxGeometry width="80" relative="1" as="geometry">
            <mxPoint x="1385" y="360" as="sourcePoint" />
            <mxPoint x="395" y="590" as="targetPoint" />
            <Array as="points">
              <mxPoint x="400" y="360" />
            </Array>
          </mxGeometry>
        </mxCell>
        <mxCell id="QsK15BSNZArLvk_TxogM-114" value="" style="html=1;verticalAlign=bottom;endArrow=block;curved=0;rounded=0;entryX=0.5;entryY=-0.012;entryDx=0;entryDy=0;entryPerimeter=0;fontFamily=Poppins;fontSource=https%3A%2F%2Ffonts.googleapis.com%2Fcss%3Ffamily%3DPoppins;" edge="1" parent="1" target="QsK15BSNZArLvk_TxogM-70">
          <mxGeometry x="0.1407" y="60" width="80" relative="1" as="geometry">
            <mxPoint x="640" y="360" as="sourcePoint" />
            <mxPoint x="710" y="460" as="targetPoint" />
            <mxPoint as="offset" />
          </mxGeometry>
        </mxCell>
        <mxCell id="QsK15BSNZArLvk_TxogM-115" value="" style="html=1;verticalAlign=bottom;endArrow=block;curved=0;rounded=0;entryX=0.5;entryY=-0.012;entryDx=0;entryDy=0;entryPerimeter=0;fontFamily=Poppins;fontSource=https%3A%2F%2Ffonts.googleapis.com%2Fcss%3Ffamily%3DPoppins;" edge="1" parent="1">
          <mxGeometry x="0.1287" y="50" width="80" relative="1" as="geometry">
            <mxPoint x="869.71" y="361" as="sourcePoint" />
            <mxPoint x="869.71" y="590" as="targetPoint" />
            <mxPoint as="offset" />
          </mxGeometry>
        </mxCell>
        <mxCell id="QsK15BSNZArLvk_TxogM-116" value="" style="html=1;verticalAlign=bottom;endArrow=block;curved=0;rounded=0;entryX=0.5;entryY=-0.012;entryDx=0;entryDy=0;entryPerimeter=0;fontFamily=Poppins;fontSource=https%3A%2F%2Ffonts.googleapis.com%2Fcss%3Ffamily%3DPoppins;" edge="1" parent="1">
          <mxGeometry x="0.1287" y="40" width="80" relative="1" as="geometry">
            <mxPoint x="1100" y="361" as="sourcePoint" />
            <mxPoint x="1100" y="590" as="targetPoint" />
            <mxPoint as="offset" />
          </mxGeometry>
        </mxCell>
        <mxCell id="QsK15BSNZArLvk_TxogM-117" value="User is Gym/Swimming Manager" style="text;html=1;strokeColor=none;fillColor=none;align=center;verticalAlign=middle;whiteSpace=wrap;rounded=0;fontFamily=Poppins;fontSource=https%3A%2F%2Ffonts.googleapis.com%2Fcss%3Ffamily%3DPoppins;" vertex="1" parent="1">
          <mxGeometry x="1407" y="450" width="60" height="30" as="geometry" />
        </mxCell>
        <mxCell id="QsK15BSNZArLvk_TxogM-121" value="User is Student" style="text;html=1;strokeColor=none;fillColor=none;align=center;verticalAlign=middle;whiteSpace=wrap;rounded=0;fontFamily=Poppins;fontSource=https%3A%2F%2Ffonts.googleapis.com%2Fcss%3Ffamily%3DPoppins;" vertex="1" parent="1">
          <mxGeometry x="400" y="460" width="60" height="30" as="geometry" />
        </mxCell>
        <mxCell id="QsK15BSNZArLvk_TxogM-122" value="Verification" style="swimlane;fontStyle=1;align=center;verticalAlign=middle;childLayout=stackLayout;horizontal=1;startSize=30;horizontalStack=0;resizeParent=0;resizeLast=1;container=0;fontColor=#000000;collapsible=0;rounded=1;arcSize=30;strokeColor=#ff0000;fillColor=#ffffc0;swimlaneFillColor=#ffffc0;dropTarget=0;fontFamily=Poppins;fontSource=https%3A%2F%2Ffonts.googleapis.com%2Fcss%3Ffamily%3DPoppins;" vertex="1" parent="1">
          <mxGeometry x="1310" y="215" width="160" height="60" as="geometry" />
        </mxCell>
        <mxCell id="QsK15BSNZArLvk_TxogM-123" value="Do:&amp;nbsp;Verify Credential" style="text;html=1;strokeColor=none;fillColor=none;align=center;verticalAlign=middle;spacingLeft=4;spacingRight=4;whiteSpace=wrap;overflow=hidden;rotatable=0;fontColor=#000000;fontFamily=Poppins;fontSource=https%3A%2F%2Ffonts.googleapis.com%2Fcss%3Ffamily%3DPoppins;" vertex="1" parent="QsK15BSNZArLvk_TxogM-122">
          <mxGeometry y="30" width="160" height="30" as="geometry" />
        </mxCell>
        <mxCell id="QsK15BSNZArLvk_TxogM-128" value="Do:&amp;nbsp;Verify Credential" style="text;html=1;strokeColor=none;fillColor=none;align=center;verticalAlign=middle;spacingLeft=4;spacingRight=4;whiteSpace=wrap;overflow=hidden;rotatable=0;fontColor=#000000;fontFamily=Poppins;fontSource=https%3A%2F%2Ffonts.googleapis.com%2Fcss%3Ffamily%3DPoppins;" vertex="1" parent="QsK15BSNZArLvk_TxogM-122">
          <mxGeometry y="60" width="160" as="geometry" />
        </mxCell>
        <mxCell id="QsK15BSNZArLvk_TxogM-131" style="edgeStyle=orthogonalEdgeStyle;rounded=0;orthogonalLoop=1;jettySize=auto;html=1;entryX=0.5;entryY=0;entryDx=0;entryDy=0;fontFamily=Poppins;fontSource=https%3A%2F%2Ffonts.googleapis.com%2Fcss%3Ffamily%3DPoppins;" edge="1" parent="1" source="QsK15BSNZArLvk_TxogM-128" target="QsK15BSNZArLvk_TxogM-82">
          <mxGeometry relative="1" as="geometry" />
        </mxCell>
        <mxCell id="QsK15BSNZArLvk_TxogM-132" style="edgeStyle=orthogonalEdgeStyle;rounded=0;orthogonalLoop=1;jettySize=auto;html=1;exitX=1;exitY=0;exitDx=0;exitDy=0;entryX=0.5;entryY=0;entryDx=0;entryDy=0;fontFamily=Poppins;fontSource=https%3A%2F%2Ffonts.googleapis.com%2Fcss%3Ffamily%3DPoppins;" edge="1" parent="1" source="QsK15BSNZArLvk_TxogM-5" target="QsK15BSNZArLvk_TxogM-122">
          <mxGeometry relative="1" as="geometry">
            <Array as="points">
              <mxPoint x="1390" y="150" />
            </Array>
          </mxGeometry>
        </mxCell>
        <mxCell id="QsK15BSNZArLvk_TxogM-133" style="edgeStyle=orthogonalEdgeStyle;rounded=0;orthogonalLoop=1;jettySize=auto;html=1;exitX=0;exitY=0;exitDx=0;exitDy=0;entryX=0.706;entryY=1.04;entryDx=0;entryDy=0;entryPerimeter=0;fontFamily=Poppins;fontSource=https%3A%2F%2Ffonts.googleapis.com%2Fcss%3Ffamily%3DPoppins;" edge="1" parent="1" source="QsK15BSNZArLvk_TxogM-123" target="QsK15BSNZArLvk_TxogM-5">
          <mxGeometry relative="1" as="geometry">
            <Array as="points">
              <mxPoint x="1218" y="245" />
            </Array>
          </mxGeometry>
        </mxCell>
        <mxCell id="QsK15BSNZArLvk_TxogM-134" value="Verification failed" style="text;html=1;strokeColor=none;fillColor=none;align=center;verticalAlign=middle;whiteSpace=wrap;rounded=0;fontFamily=Poppins;fontSource=https%3A%2F%2Ffonts.googleapis.com%2Fcss%3Ffamily%3DPoppins;" vertex="1" parent="1">
          <mxGeometry x="1230" y="250" width="60" height="30" as="geometry" />
        </mxCell>
        <mxCell id="QsK15BSNZArLvk_TxogM-135" value="Verification &amp;nbsp;Succeded" style="text;html=1;strokeColor=none;fillColor=none;align=center;verticalAlign=middle;whiteSpace=wrap;rounded=0;fontFamily=Poppins;fontSource=https%3A%2F%2Ffonts.googleapis.com%2Fcss%3Ffamily%3DPoppins;" vertex="1" parent="1">
          <mxGeometry x="1393" y="300" width="60" height="30" as="geometry" />
        </mxCell>
        <mxCell id="QsK15BSNZArLvk_TxogM-136" value="User is Counsellor" style="text;html=1;strokeColor=none;fillColor=none;align=center;verticalAlign=middle;whiteSpace=wrap;rounded=0;fontFamily=Poppins;fontSource=https%3A%2F%2Ffonts.googleapis.com%2Fcss%3Ffamily%3DPoppins;" vertex="1" parent="1">
          <mxGeometry x="650" y="460" width="60" height="30" as="geometry" />
        </mxCell>
        <mxCell id="QsK15BSNZArLvk_TxogM-139" value="User is Sports Coach" style="text;html=1;strokeColor=none;fillColor=none;align=center;verticalAlign=middle;whiteSpace=wrap;rounded=0;fontFamily=Poppins;fontSource=https%3A%2F%2Ffonts.googleapis.com%2Fcss%3Ffamily%3DPoppins;" vertex="1" parent="1">
          <mxGeometry x="870" y="460" width="60" height="30" as="geometry" />
        </mxCell>
        <mxCell id="QsK15BSNZArLvk_TxogM-140" value="User is Yoga Instructor" style="text;html=1;strokeColor=none;fillColor=none;align=center;verticalAlign=middle;whiteSpace=wrap;rounded=0;fontFamily=Poppins;fontSource=https%3A%2F%2Ffonts.googleapis.com%2Fcss%3Ffamily%3DPoppins;" vertex="1" parent="1">
          <mxGeometry x="1103" y="460" width="60" height="30" as="geometry" />
        </mxCell>
        <mxCell id="QsK15BSNZArLvk_TxogM-141" value="Click on menu option" style="text;html=1;strokeColor=none;fillColor=none;align=center;verticalAlign=middle;whiteSpace=wrap;rounded=0;fontFamily=Poppins;fontSource=https%3A%2F%2Ffonts.googleapis.com%2Fcss%3Ffamily%3DPoppins;" vertex="1" parent="1">
          <mxGeometry x="435" y="820" width="150" height="30" as="geometry" />
        </mxCell>
        <mxCell id="QsK15BSNZArLvk_TxogM-142" value="Click on &quot;Read More&quot; in announcements section" style="text;html=1;strokeColor=none;fillColor=none;align=center;verticalAlign=middle;whiteSpace=wrap;rounded=0;fontFamily=Poppins;fontSource=https%3A%2F%2Ffonts.googleapis.com%2Fcss%3Ffamily%3DPoppins;" vertex="1" parent="1">
          <mxGeometry x="430" y="720" width="150" height="30" as="geometry" />
        </mxCell>
      </root>
    </mxGraphModel>
  </diagram>
</mxfile>
